<?xml version="1.0" encoding="UTF-8" standalone="no"?>
<!-- Created with Inkscape (http://www.inkscape.org/) -->

<svg
   xmlns:dc="http://purl.org/dc/elements/1.1/"
   xmlns:cc="http://creativecommons.org/ns#"
   xmlns:rdf="http://www.w3.org/1999/02/22-rdf-syntax-ns#"
   xmlns:svg="http://www.w3.org/2000/svg"
   xmlns="http://www.w3.org/2000/svg"
   xmlns:sodipodi="http://sodipodi.sourceforge.net/DTD/sodipodi-0.dtd"
   xmlns:inkscape="http://www.inkscape.org/namespaces/inkscape"
   width="300"
   height="250"
   id="svg2454"
   sodipodi:version="0.32"
   inkscape:version="0.48.4 r9939"
   sodipodi:docname="Pas_les_poneys.svg"
   inkscape:output_extension="org.inkscape.output.svg.inkscape"
   version="1.0"
   inkscape:export-filename="F:\dessins\pitite etoile\mon chéri3.png"
   inkscape:export-xdpi="90"
   inkscape:export-ydpi="90">
  <defs
     id="defs2456">
    <linearGradient
       id="linearGradient3544">
      <stop
         style="stop-color:#ee8318;stop-opacity:1;"
         offset="0"
         id="stop3546" />
      <stop
         style="stop-color:#ee8318;stop-opacity:0.22764228;"
         offset="1"
         id="stop3548" />
    </linearGradient>
    <inkscape:perspective
       sodipodi:type="inkscape:persp3d"
       inkscape:vp_x="0 : 526.18109 : 1"
       inkscape:vp_y="0 : 1000 : 0"
       inkscape:vp_z="744.09448 : 526.18109 : 1"
       inkscape:persp3d-origin="372.04724 : 350.78739 : 1"
       id="perspective2462" />
    <inkscape:perspective
       id="perspective2718"
       inkscape:persp3d-origin="372.04724 : 350.78739 : 1"
       inkscape:vp_z="744.09448 : 526.18109 : 1"
       inkscape:vp_y="0 : 1000 : 0"
       inkscape:vp_x="0 : 526.18109 : 1"
       sodipodi:type="inkscape:persp3d" />
    <inkscape:perspective
       id="perspective3429"
       inkscape:persp3d-origin="372.04724 : 350.78739 : 1"
       inkscape:vp_z="744.09448 : 526.18109 : 1"
       inkscape:vp_y="0 : 1000 : 0"
       inkscape:vp_x="0 : 526.18109 : 1"
       sodipodi:type="inkscape:persp3d" />
  </defs>
  <sodipodi:namedview
     id="base"
     pagecolor="#ffffff"
     bordercolor="#666666"
     borderopacity="1.0"
     inkscape:pageopacity="0.0"
     inkscape:pageshadow="2"
     inkscape:zoom="1.0556883"
     inkscape:cx="175.99791"
     inkscape:cy="57.024154"
     inkscape:document-units="px"
     inkscape:current-layer="layer1"
     showgrid="false"
     inkscape:window-width="1366"
     inkscape:window-height="696"
     inkscape:window-x="0"
     inkscape:window-y="24"
     borderlayer="true"
     showguides="false"
     inkscape:guide-bbox="true"
     inkscape:window-maximized="1">
    <sodipodi:guide
       orientation="0.1391731,0.99026807"
       position="322.85714,237.85714"
       id="guide2423" />
  </sodipodi:namedview>
  <metadata
     id="metadata2459">
    <rdf:RDF>
      <cc:Work
         rdf:about="">
        <dc:format>image/svg+xml</dc:format>
        <dc:type
           rdf:resource="http://purl.org/dc/dcmitype/StillImage" />
      </cc:Work>
    </rdf:RDF>
  </metadata>
  <g
     inkscape:groupmode="layer"
     id="layer4"
     style="display:inline"
     transform="translate(-309.46807,-145.97873)">
    <path
       style="fill:#000000;fill-opacity:1;fill-rule:nonzero;stroke:#000000;stroke-width:3.00000024;stroke-linecap:round;stroke-linejoin:round;stroke-miterlimit:4;stroke-opacity:1;stroke-dasharray:none;stroke-dashoffset:7.8;marker:none;visibility:visible;display:inline;overflow:visible;enable-background:accumulate"
       d="m 434.92014,168.38287 c -34.51597,4.0338 -60.24521,7.70192 -62.68798,16.57237 -9.77416,30.12409 -13.0783,57.09647 4.23901,85.09823 3.15069,-12.57598 0.71635,-26.46 14.8682,-36.42742 0.34002,5.1317 -1.61998,9.69167 4.75312,16.25393 -1.53673,-21.60924 8.27336,-28.05438 15.05442,-38.56718 -0.92921,15.56522 1.25044,26.10379 9.81034,26.34936 -1.34121,-9.99732 8.10473,-29.4377 25.87809,-14.45969 3.66581,3.08926 10.75727,9.15596 10.25546,19.49938 14.86935,-5.84324 4.89299,-18.99889 5.94789,-19.6856 20.45663,21.36919 9.04231,32.28144 4.66481,45.32137 15.62952,2.06138 21.59559,-11.70665 22.93228,-30.88611 10.11781,13.53567 2.20283,27.7502 -3.9653,49.15233 12.2957,-3.50966 17.62879,-14.1818 21.3493,-26.5128 1.89504,32.9469 -6.52471,64.08002 -12.0486,95.72237 5.05667,-7.95301 6.74226,-8.81747 9.00864,-10.90318 4.24054,-2.79647 2.09446,2.64554 3.08327,4.04368 3.11165,-2.2982 2.36359,-2.87727 5.53664,-9.51501 l 2.9982,-29.57494 -3.94123,-82.25353 -77.73656,-59.22756 z"
       id="path3505"
       sodipodi:nodetypes="cccccccsccccccccccccc"
       inkscape:connector-curvature="0" />
    <path
       style="fill:#000000;fill-opacity:1;fill-rule:nonzero;stroke:#000000;stroke-width:3.00000024;stroke-linecap:round;stroke-linejoin:round;stroke-miterlimit:4;stroke-opacity:1;stroke-dasharray:none;stroke-dashoffset:7.8;marker:none;visibility:visible;display:inline;overflow:visible;enable-background:accumulate"
       d="m 487.14361,360.27116 c 3.68162,2.10952 6.54352,1.1443 5.22282,10.71027 1.4708,-0.85415 8.97413,-8.70158 14.98402,-19.82784 3.144,3.81804 -5.99574,25.83631 -13.80042,35.99295 3.25377,-1.2034 24.14624,-12.7347 24.70041,-20.06296 8.93307,7.38574 8.98417,10.03918 8.4175,20.92196 17.68827,-31.76248 40.72913,-65.51565 27.01087,-112.26566 0,0 22.01883,-55.84284 -56.92162,-97.06921 -49.94545,-26.08384 -75.95635,-10.41326 -95.71361,-7.90163 -50.72581,6.44847 -69.28537,69.53803 -56.00038,89.49935 3.57444,-11.57696 11.53893,-20.74357 18.15585,-13.08414 -44.55773,49.99491 -40.23053,68.16608 -41.2569,92.9953 15.3312,-25.81201 23.84483,-28.63677 32.44598,-31.75663 -1.56073,-1.30519 -14.41053,22.15704 -10.21422,36.5091 1.24483,-15.12975 17.06668,-36.26762 17.77846,-29.00559 -5.45937,23.9016 -1.87161,33.75788 7.58997,40.74213 0.32038,-8.20716 -1.27184,-12.97262 8.00463,-27.70091 9.27647,-14.72828 -5.64923,11.01136 -5.29961,12.49902 0.34963,1.48766 8.23728,21.72107 14.31781,23.89871 0.21901,-14.63299 11.30849,-17.04364 11.30849,-17.04364 3.64432,8.70353 7.15264,9.56603 12.58021,12.56321 0.76188,-17.00561 16.89572,-3.86261 24.31906,-10.56176 10.86683,-9.80671 50.41086,-2.13895 34.69383,20.39276 15.48731,-1.90076 5.90398,-8.2326 17.67685,-10.44479 z"
       id="path3507"
       sodipodi:nodetypes="cccccccssccccccccccccscc"
       inkscape:connector-curvature="0" />
  </g>
  <g
     inkscape:groupmode="layer"
     id="layer9"
     inkscape:label="droplets"
     transform="translate(-65.077547,-79.013229)">
    <path
       style="fill:#e0e9e8;fill-opacity:1;fill-rule:nonzero;stroke:#000000;stroke-width:2;stroke-linecap:round;stroke-linejoin:round;stroke-miterlimit:4;stroke-opacity:1;stroke-dasharray:none;stroke-dashoffset:7.8;marker:none;visibility:visible;display:inline;overflow:visible;enable-background:accumulate"
       d="m 335.75482,101.93286 c -10.22862,-6.722376 -9.63935,11.7759 -17.44849,25.03343 0,0 29.72576,-16.96465 17.44849,-25.03343 z"
       id="path3243"
       sodipodi:nodetypes="ccs"
       inkscape:connector-curvature="0" />
    <path
       style="fill:#e0e9e8;fill-opacity:1;fill-rule:nonzero;stroke:#000000;stroke-width:2;stroke-linecap:round;stroke-linejoin:round;stroke-miterlimit:4;stroke-opacity:1;stroke-dasharray:none;stroke-dashoffset:7.8;marker:none;visibility:visible;display:inline;overflow:visible;enable-background:accumulate"
       d="m 354.13127,137.72498 c -2.47854,-8.8032 -11.46925,1.85064 -22.63563,5.43263 0,0 25.61057,5.13373 22.63563,-5.43263 z"
       id="path3245"
       sodipodi:nodetypes="ccs"
       inkscape:connector-curvature="0" />
    <path
       style="fill:#e0e9e8;fill-opacity:1;fill-rule:nonzero;stroke:#000000;stroke-width:2;stroke-linecap:round;stroke-linejoin:round;stroke-miterlimit:4;stroke-opacity:1;stroke-dasharray:none;stroke-dashoffset:7.8;marker:none;visibility:visible;display:inline;overflow:visible;enable-background:accumulate"
       d="m 354.06207,173.84312 c 5.02153,-8.55027 -9.98881,-7.27904 -21.10275,-13.01618 0,0 15.07548,23.27897 21.10275,13.01618 z"
       id="path3247"
       sodipodi:nodetypes="ccs"
       inkscape:connector-curvature="0" />
  </g>
  <g
     inkscape:groupmode="layer"
     id="layer2"
     inkscape:label="1"
     style="display:inline"
     transform="translate(-309.46807,-145.97873)">
    <path
       style="fill:#f8dbbb;fill-opacity:1;fill-rule:nonzero;stroke:#000000;stroke-width:3.00000024;stroke-linecap:round;stroke-linejoin:round;stroke-miterlimit:4;stroke-opacity:1;stroke-dasharray:none;stroke-dashoffset:7.8;marker:none;visibility:visible;display:inline;overflow:visible;enable-background:accumulate"
       d="m 516.35244,300.59512 c -5.40912,25.07357 -8.22511,33.29175 -16.24736,42.29703 -15.04856,16.89259 -44.3984,18.57761 -69.16246,14.8281 -20.6734,-7.54452 -28.74844,-12.82529 -45.62366,-24.31431 -33.5761,-22.85933 -9.88552,-41.85224 -9.67166,-59.91134 l 5.17311,-48.08606 69.37559,-22.22133 46.46213,32.81842 18.78959,20.96195 0.90472,43.62754 z"
       id="path2725"
       sodipodi:nodetypes="cscscccccc"
       inkscape:connector-curvature="0" />
    <path
       style="fill:#f7ddbf;fill-opacity:1;fill-rule:nonzero;stroke:#000000;stroke-width:3.00000024;stroke-linecap:round;stroke-linejoin:round;stroke-miterlimit:4;stroke-opacity:1;stroke-dasharray:none;stroke-dashoffset:7.8;marker:none;visibility:visible;display:inline;overflow:visible;enable-background:accumulate"
       d="m 367.26126,266.54877 c -11.1927,-2.19681 -20.84039,14.28438 -10.89209,33.51951 3.85653,-11.14617 17.69608,-21.09843 10.89209,-33.51951 z"
       id="path3497"
       sodipodi:nodetypes="ccc"
       inkscape:connector-curvature="0" />
  </g>
  <g
     inkscape:groupmode="layer"
     id="layer1"
     inkscape:label="yeux"
     transform="translate(-65.077547,-79.013229)">
    <path
       style="fill:#ffffff;fill-opacity:1;fill-rule:nonzero;stroke:#000000;stroke-width:2;stroke-linecap:round;stroke-linejoin:round;stroke-miterlimit:4;stroke-opacity:1;stroke-dasharray:none;stroke-dashoffset:7.8;marker:none;visibility:visible;display:inline;overflow:visible;enable-background:accumulate"
       d="m 135.29002,259.98818 c -1.31579,-3.54283 0.87067,-9.00281 3.21429,-10 3.39711,-1.44544 -4.96,-9.6733 4.28571,-12.85714 4.66991,-1.60812 -6.27003,-14.02106 1.07143,-15.35714 4.77284,-0.86861 -4.5876,-14.43227 3.21429,-17.14286 1.72353,-0.5988 -1.82024,-5.69167 -0.71429,-7.14286 4.72387,-2.50221 11.02949,-4.83406 17.67857,-3.21429 6.46039,1.14865 11.69114,4.57293 16.25,10.00001 1.43426,2.82012 -9.32516,7.4497 -7.76677,12.59345 3.94959,13.03635 -11.29466,9.51828 -8.6618,18.47798 1.38582,4.71601 -9.29904,5.17464 -8.92857,8.92857 1.13362,11.48692 -6.98061,8.4314 -6.07143,12.5 1.34864,6.03516 -1.80017,8.94303 -5,9.64286 -3.14007,0.68675 -7.45235,-3.4154 -8.57143,-6.42858 z"
       id="path3218"
       sodipodi:nodetypes="csssscccssssss"
       inkscape:connector-curvature="0" />
    <path
       style="fill:#ffffff;fill-opacity:1;fill-rule:nonzero;stroke:#000000;stroke-width:2;stroke-linecap:round;stroke-linejoin:round;stroke-miterlimit:4;stroke-opacity:1;stroke-dasharray:none;stroke-dashoffset:7.8;marker:none;visibility:visible;display:inline;overflow:visible;enable-background:accumulate"
       d="m 242.40964,283.84349 c 2.34415,-3.20211 1.94791,-9.54071 0.026,-11.346 -2.78584,-2.61676 7.7012,-8.28753 -0.11218,-14.63868 -3.94645,-3.20787 10.28807,-12.31865 3.71637,-16.13688 -4.2724,-2.48229 8.81443,-13.30159 2.22858,-18.68552 -1.45489,-1.18937 3.48664,-5.2421 2.88208,-7.10163 -3.72207,-4.14456 -9.00135,-8.64095 -15.8259,-9.19128 -6.49977,-0.9716 -12.53153,0.80468 -18.54175,4.8627 -2.23398,2.42004 6.57351,10.76092 3.50492,15.52722 -7.77705,12.07976 7.80917,13.54247 2.54176,21.87191 -2.77253,4.38428 7.25022,8.41451 5.74022,12.14841 -4.62053,11.42562 4.0405,10.98871 1.92102,14.8665 -3.14395,5.75213 -1.04527,9.7889 1.78283,11.57382 2.77528,1.75156 8.14237,-1.02717 10.13607,-3.75057 z"
       id="path3227"
       sodipodi:nodetypes="csssscccssssss"
       inkscape:connector-curvature="0" />
    <path
       style="fill:none;stroke:#000000;stroke-width:5;stroke-linecap:round;stroke-linejoin:round;stroke-miterlimit:4;stroke-opacity:1;stroke-dasharray:none;stroke-dashoffset:7.8;marker:none;visibility:visible;display:inline;overflow:visible;enable-background:accumulate"
       d="m 254.45642,218.933 c -14.44503,-20.05384 -39.96197,-14.11613 -44.69593,3.53239"
       id="path3229"
       sodipodi:nodetypes="cc"
       inkscape:connector-curvature="0" />
    <path
       style="fill:#000000;fill-opacity:1;fill-rule:nonzero;stroke:#000000;stroke-width:3.00000024;stroke-linecap:round;stroke-linejoin:round;stroke-miterlimit:4;stroke-opacity:1;stroke-dasharray:none;stroke-dashoffset:7.8;marker:none;visibility:visible;display:inline;overflow:visible;enable-background:accumulate"
       d="m 219.19221,174.83858 -6.77513,3.79664 c 6.21004,10.86284 30.20731,26.89502 49.30608,26.88895 -18.77326,-6.50308 -40.48358,-20.14379 -42.53095,-30.68559 z"
       id="path3231"
       sodipodi:nodetypes="cccc"
       inkscape:connector-curvature="0" />
  </g>
  <g
     inkscape:groupmode="layer"
     id="layer5"
     inkscape:label="cils"
     transform="translate(-65.077547,-79.013229)">
    <path
       style="fill:none;stroke:#000000;stroke-width:5;stroke-linecap:round;stroke-linejoin:round;stroke-miterlimit:4;stroke-opacity:1;stroke-dasharray:none;stroke-dashoffset:7.8;marker:none;visibility:visible;display:inline;overflow:visible;enable-background:accumulate"
       d="m 142.07574,199.98819 c 19.92498,-14.62227 42.36747,-1.1054 41.42857,17.14285"
       id="path2446"
       sodipodi:nodetypes="cc"
       inkscape:connector-curvature="0" />
    <path
       style="fill:#000000;fill-opacity:1;fill-rule:nonzero;stroke:#000000;stroke-width:3.00000024;stroke-linecap:round;stroke-linejoin:round;stroke-miterlimit:4;stroke-opacity:1;stroke-dasharray:none;stroke-dashoffset:7.8;marker:none;visibility:visible;display:inline;overflow:visible;enable-background:accumulate"
       d="m 189.21859,168.91675 5.27423,5.70083 c -9.25712,8.41853 -37.02872,16.26956 -55.1949,10.3744 19.86373,-0.39717 44.72237,-6.67849 49.92067,-16.07523 z"
       id="path3536"
       sodipodi:nodetypes="cccc"
       inkscape:connector-curvature="0" />
  </g>
  <g
     inkscape:groupmode="layer"
     id="layer8"
     inkscape:label="texte"
     transform="translate(-65.077547,-79.013229)" />
  <g
     inkscape:groupmode="layer"
     id="layer10"
     inkscape:label="123"
     transform="translate(-309.46807,-145.97873)" />
  <g
     inkscape:groupmode="layer"
     id="layer6"
     inkscape:label="1#1"
     style="display:inline"
     transform="translate(-309.46807,-145.97873)">
    <path
       sodipodi:nodetypes="ccscccccsccccccsccccccc"
       id="path3523"
       d="m 434.92014,168.38287 c -34.51597,4.0338 -53.68203,20.26955 -56.1248,29.13999 -9.1132,28.08696 -36.66716,32.83623 -22.92118,58.6066 0.99698,1.86912 27.17851,22.67777 28.3496,24.57139 -5.59071,-19.05327 -7.03624,-37.10738 7.11561,-47.0748 0.34002,5.1317 -1.61998,9.69167 4.75312,16.25393 -1.53673,-21.60924 8.27336,-28.05438 15.05442,-38.56718 -0.92921,15.56522 4.2809,30.64948 12.8408,30.89505 -1.34121,-9.99732 10.88265,-37.77146 28.65601,-22.79345 3.66581,3.08926 -0.10187,8.90342 -0.60368,19.24684 14.86935,-5.84324 10.9539,-14.95828 12.0088,-15.64499 20.45663,21.36919 8.03216,32.28144 3.65466,45.32137 14.87191,-9.80791 21.59559,-11.70665 22.93228,-30.88611 10.11781,13.53567 19.8805,33.0535 13.71237,54.45563 11.61541,-7.38603 13.273,-1.38485 8.97494,-11.61305 -4.21115,17.45476 -7.72302,28.54811 -5.82251,39.39782 1.80962,10.33081 -6.60766,20.60546 -11.5294,36.1215 5.05667,-7.95301 6.74226,-8.81747 9.00864,-10.90318 4.24054,-2.79647 2.09446,2.64554 3.08327,4.04368 3.11165,-2.2982 2.36359,-2.87727 5.53664,-9.51501 4.17497,-9.10533 7.92908,-16.30014 6.56963,-26.71779 l -7.51266,-85.11068 -77.73656,-59.22756 z"
       style="fill:#000000;fill-opacity:1;fill-rule:nonzero;stroke:#000000;stroke-width:3.00000024;stroke-linecap:round;stroke-linejoin:round;stroke-miterlimit:4;stroke-opacity:1;stroke-dasharray:none;stroke-dashoffset:7.8;marker:none;visibility:visible;display:inline;overflow:visible;enable-background:accumulate"
       inkscape:connector-curvature="0" />
  </g>
  <g
     inkscape:groupmode="layer"
     id="layer3"
     inkscape:label="2"
     style="display:inline"
     transform="translate(-309.46807,-145.97873)" />
  <g
     inkscape:groupmode="layer"
     id="layer7"
     inkscape:label="3"
     style="display:inline"
     transform="translate(-309.46807,-145.97873)">
    <path
       style="fill:#b10000;fill-opacity:1;fill-rule:nonzero;stroke:#000000;stroke-width:3.00000024;stroke-linecap:round;stroke-linejoin:round;stroke-miterlimit:4;stroke-opacity:1;stroke-dasharray:none;stroke-dashoffset:7.8;marker:none;visibility:visible;display:inline;overflow:visible;enable-background:accumulate"
       d="m 452.80719,357.49425 c -2.64662,0.46627 -5.16552,3.08827 -23.51227,-3.00587 l -24.22762,-9.08892 c 0,0 -7.50522,-11.99919 -2.98541,-17.5556 14.83819,-18.24126 20.43478,-1.37538 42.19026,-2.02538 25.04886,-0.7484 26.27224,14.22899 20.67319,24.49072 -4.43579,8.12975 -12.13815,7.18505 -12.13815,7.18505 z"
       id="path3528"
       sodipodi:nodetypes="cccsssc"
       inkscape:connector-curvature="0" />
    <path
       style="fill:#fb9ca9;fill-opacity:0.91701247;fill-rule:nonzero;stroke:#000000;stroke-width:3.00000024;stroke-linecap:round;stroke-linejoin:round;stroke-miterlimit:4;stroke-opacity:1;stroke-dasharray:none;stroke-dashoffset:7.8;marker:none;visibility:visible;display:inline;overflow:visible;enable-background:accumulate"
       d="m 402.67664,338.26648 c 12.30149,-3.40771 48.14367,-2.30449 60.99001,6.84775 5.96559,4.42754 -4.45359,11.11176 -11.32161,13.5551 -14.65761,-0.26701 -29.27459,-0.38962 -47.59413,-13.67123 l -2.07427,-6.73162 z"
       id="path3530"
       sodipodi:nodetypes="ccccc"
       inkscape:connector-curvature="0" />
    <path
       style="fill:#f7ddbf;fill-opacity:1;fill-rule:nonzero;stroke:#000000;stroke-width:3.00000024;stroke-linecap:round;stroke-linejoin:round;stroke-miterlimit:4;stroke-opacity:1;stroke-dasharray:none;stroke-dashoffset:7.8;marker:none;visibility:visible;display:inline;overflow:visible;enable-background:accumulate"
       d="m 514.12661,331.3172 c -0.96139,0.26302 -3.16902,0.48395 -3.95499,0.44578 4.79757,-7.36409 4.30243,-33.92312 3.0825,-38.35023 22.21107,-6.31778 17.76474,32.22092 0.87249,37.90445 z"
       id="path3499"
       sodipodi:nodetypes="cccc"
       inkscape:connector-curvature="0" />
  </g>
</svg>
