<?xml version="1.0" encoding="utf-8"?>
<!-- Generator: Adobe Illustrator 20.1.0, SVG Export Plug-In . SVG Version: 6.00 Build 0)  -->
<svg version="1.1" id="Layer_1" xmlns="http://www.w3.org/2000/svg" xmlns:xlink="http://www.w3.org/1999/xlink" x="0px" y="0px"
	 viewBox="0 0 282.2 249" style="enable-background:new 0 0 282.2 249;" xml:space="preserve">
<style type="text/css">
	.st0{fill:#F9CFAE;}
	.st1{fill:#CDA792;}
	.st2{fill:#FFFFFF;stroke:#474449;stroke-miterlimit:10;}
	.st3{fill:#F5EDF5;}
	.st4{fill:#FFFFFF;}
	.st5{fill:#C11F3F;}
	.st6{fill:#ED218A;}
	.st7{fill:#EF4B8E;}
	.st8{fill:#FFFFFF;stroke:#000000;stroke-miterlimit:10;}
	.st9{fill:#F3B1D0;}
</style>
<path class="st0" d="M82.3,157.3L80,187.8c0,0,14.8,35.8,57.2,35.8s66-28,66-28l-2.7-86.7c0,0-28.8-26.8-58.9-27.7
	c-30.1-0.8-57.4,27.3-57.4,27.3L82.3,157.3z"/>
<path class="st1" d="M126.2,153.7c20.4-1,41,1.4,60.7,6.4c5.1,1.3,10.3,2.8,15.3,4.5l-1.7-55.6c0,0-28.8-26.8-58.9-27.7
	c-30.1-0.8-57.4,27.3-57.4,27.3l-1.8,48.7l-0.7,9.2C93.5,156.5,111.3,154.5,126.2,153.7z"/>
<path class="st2" d="M122.3,215.7l-4.2-8.8c0,0,14.3-3.5,24-5.5s30.8-5.8,30.5,5.3s-7.2,9.7-7.2,9.7s-16-5.5-26-3
	S123,213.8,122.3,215.7z"/>
<path class="st3" d="M133.1,207.7c1.3-0.6,2.6-1,3.9-1.3c-0.1-0.1-0.3-0.2-0.4-0.4c-0.9-0.8-1.3-2-1.4-3.2c-8.4,1.9-17,4-17,4
	l4.2,8.8c0.5-1.3,3.8-0.7,9.1-1.1C130.1,212.3,130.5,208.8,133.1,207.7z"/>
<path class="st4" d="M94.5,177.3c0,0-7.2-20.8,10.7-22.2s20.3,22.2,20.3,22.2s-7.5,6-17.2,6S94.5,177.3,94.5,177.3z"/>
<path class="st4" d="M166.3,179.2c0,0-2.3-3.5-2.7-6s0-19.7,16.2-19.3c16.2,0.3,17,12.7,17,12.7l-5.5,12.7c0,0-5.2,4.2-13,3.3
	C170.5,181.7,166.3,179.2,166.3,179.2z"/>
<path class="st3" d="M99.6,168.3c8-2.7,19.1,1.2,26,6.4c-1.2-5.9-5.6-21-20-19.9c-12.1,0.9-12.7,10.8-11.8,17
	C95.5,170.3,97.5,169.1,99.6,168.3z"/>
<path class="st3" d="M164.6,174.5c1.8-2.3,4.2-4.2,6.8-5.6c5.7-3,12.2-3.5,18.5-2.5c2.2,0.3,4.4,0.9,6.6,1.6l0.8-2
	c0,0-0.8-12.3-17-12.7c-16.2-0.3-16.5,16.8-16.2,19.3C164.2,173.3,164.4,173.9,164.6,174.5z"/>
<ellipse class="st5" cx="112.1" cy="167.7" rx="9.3" ry="12.2"/>
<ellipse class="st6" cx="112.1" cy="171.5" rx="7.3" ry="6.1"/>
<ellipse transform="matrix(0.9947 -0.1027 0.1027 0.9947 -16.5216 12.392)" cx="112.1" cy="166.7" rx="3.2" ry="6.9"/>
<ellipse class="st5" cx="178" cy="166" rx="10" ry="12.2"/>
<circle class="st4" cx="107.4" cy="162" r="4.7"/>
<ellipse transform="matrix(0.5 -0.866 0.866 0.5 -92.506 188.209)" class="st4" cx="116.7" cy="174.2" rx="4.7" ry="2.7"/>
<ellipse class="st6" cx="178.9" cy="170.6" rx="7.3" ry="6.1"/>
<ellipse transform="matrix(3.626813e-02 -0.9993 0.9993 3.626813e-02 6.4578 338.7393)" cx="178.9" cy="166" rx="7.3" ry="3.8"/>
<ellipse transform="matrix(0.7071 -0.7071 0.7071 0.7071 -68.6309 179.7446)" class="st4" cx="182.7" cy="172.7" rx="4.7" ry="2.7"/>
<ellipse transform="matrix(0.7071 -0.7071 0.7071 0.7071 -62.4093 168.5206)" class="st4" cx="172.2" cy="159.6" rx="4.7" ry="3.7"/>
<path d="M92.5,171.5c0,0,2.2-15.1,11.7-16.1c9.5-1,19,12.7,19,12.7s0.4-9.3-6.4-13.1c-6.8-3.8-15.9-2.6-20.3,1.1
	c-4.3,3.7-5.8,9.3-5.8,9.3l-5.8-1l7.2,8.2l2.2,3.5L92.5,171.5z"/>
<path d="M194.6,171.5l2.2-6.1c0,0-11.9-13.8-18.9-11.6c-6.9,2.1-13,8.2-13,8.2s-3-9.1,10.7-9.2C189.3,152.7,198,163,198,163l5.2,0.3
	L194.6,171.5z"/>
<path d="M96,178.8l4,1.9l13.8,0.7l5.2-1.4l-4.8,3.7c0,0-8,0.9-10.7,0S96,178.8,96,178.8z"/>
<path d="M165.8,178.8l4,1.9l13.8,0.7l5.2-1.4l-4.8,3.7c0,0-8,0.9-10.7,0S165.8,178.8,165.8,178.8z"/>
<path class="st7" d="M115.3,115.3c0,0-2.9,16.5-3.2,21s1.6,8.3,1.6,8.3s1.5-14.5,5.7-19.5s6.1-8.5,6.1-8.5s-5.8,21-0.7,28
	s13.8,12.7,15.5,17.3c1.7,4.7,3.7,13.5,3.7,13.5s12.3-11,15.5-25.7c3.2-14.7,4.1-30.5,4.1-30.5l4.4,27.8l2.8-29.2l7.1,24l3.2-24.6
	c0,0,4.8,7.8,5.7,11c0.8,3.2,1.1,19.5,1.1,19.5l4.2-26.2c0,0,9.2,9.3,8.3,23.8c-0.8,14.4-2.5,39.3-2.5,39.3l14.8-24.3
	c0,0,2.3,9.3-2.3,27.2c-4.7,17.8-8,22.5-7.3,23s25.2-25.9,27-32.9c1.8-7-1.3,16.5-1.3,16.5s8-7.8,9-18.7c1-10.8,2-32,2-32
	s7.8-16.7,3.7-23.4c-4.2-6.7-25.3-36.8-25.3-36.8s12.5,8.3,21.3,8.5c8.8,0.2,15.7-0.3,15.7-0.3s-27-21-36.7-28.2
	c-9.7-7.2-38.8-20-38.8-20l16.7-2.3c0,0-19.2-6.7-24.8-5.2c-5.7,1.5-15.7,6.3-15.7,6.3l9.7-13.8l-21,10.5L134,24.7l1.8,12l-28.3-7.2
	l10.7,8.7c0,0-6.5-3.7-18.3,1.8S69.3,70.3,60,71.3s-14.3-0.2-14.3-0.2l14.5,3.5c0,0-4.2,5.7-9.8,10.7s-16.8,37.8-16.8,37.8l18.2-23
	c0,0-10.3,17.2-9.3,31.8s9.5,51.3,9.5,51.3l1.2-16.7l7.8,24.3l4.8-30.5c0,0-0.8,19,3.7,25.2s13.2,18.8,13.2,18.8l11.8-69.8l8.5-14.3
	l-2.5,13.5L115.3,115.3z"/>
<path d="M93.1,133.3c0,0,4.8-4.3,9.7,0c4.9,4.3,11.1,17.5,16.6,20.5s8.9,1.3,8.9,1.3s-5.6-0.5-6.9-2.3c-1.3-1.8-15.2-24.1-18.7-24.5
	C99.3,128,93.1,133.3,93.1,133.3z"/>
<path d="M158.8,153.8l2.3,1.8c0,0,9.2-9.3,16.1-12.6c6.9-3.3,18.5-12,18.5-12l4.7,4.8c0,0-2.2-3.8-5.2-1.7s-26.5,19.7-31.7,21.4
	C158.3,157.3,158.8,153.8,158.8,153.8z"/>
<polygon class="st3" points="168,205.5 158.8,204.4 151.7,205.5 141.6,204.4 131.4,206.2 141.9,205.3 151.2,206.9 155.9,205.7 
	158.8,205.2 "/>
<path class="st8" d="M172.7,206.7l-4.7,2.6c0,0-3.8-3.1-6.1-3.6s-10.5,2-10.5,2l-5-0.3"/>
<path class="st5" d="M65.7,160.5c0.5-3,11.1-56.5,30.8-72s40.6-7.1,40.6-7.1S112.4,64,102.8,72S53,166.7,53,166.7l7.8,24.3
	L65.7,160.5z"/>
<path class="st5" d="M123.5,142c-0.8-6.9,2.1-33.5,2.1-33.5s0.6,22.5,5.8,31s13.3,13.2,15,20.1s-2.4,15.9-2.4,15.9
	s-1.1-12.3-6.9-18.2c-5.9-5.8-12.2-12.7-12.2-12.7L123.5,142z"/>
<polygon class="st5" points="168.3,143.5 159.5,108.5 169.8,128.3 "/>
<polygon class="st5" points="145.4,81.3 159.5,67.5 149.7,61 "/>
<polygon class="st5" points="101.3,128.3 102.8,120.3 109.6,111.8 "/>
<polygon class="st5" points="111.5,120.1 115.3,115.3 113.4,128.3 112.1,138.2 118.3,120.1 120.2,102.7 107.4,125 "/>
<polygon class="st9" points="93.1,103.6 114.5,85.4 107.4,94.5 130,83 139,116.4 140.3,93.7 144.3,121.5 141.6,114.6 139.2,134.4 
	127.3,92.5 110.7,107.9 117.7,94.4 93.1,115.7 98.7,103.7 "/>
<path class="st9" d="M155.8,93l12.2,15.7l3.6-22c0,0,27,17.3,30.6,28.3s8.3,31.7,8.3,31.7l-2.3-38.2c0,0,13.7,28.2,13,38.2
	s-1.3,28.8-1.3,28.8s18.7-33.5,14.7-49.5s-11-29.7-11-29.7l3,43.7l-23.3-53.3l1.3,27l-38.7-36v22.7L155.8,93z"/>
<path class="st9" d="M66.8,72.7c-1,0.7-23.5,25-23.5,25L62.8,83c0,0-14.3,20.2-13.7,37.1s2,35.4,2,35.4l30.5-74.2
	c0,0-29.8,46.4-28.6,44.7c1.2-1.7,16.5-48.4,16.5-48.4l-5.7,1.7L66.8,72.7z"/>
</svg>
