<svg id="Layer_1" data-name="Layer 1" xmlns="http://www.w3.org/2000/svg" viewBox="0 0 136.62 152.67"><defs><style>.cls-1{fill:#a64a24;}.cls-2{fill:#f47521;}.cls-3{fill:#231f20;}.cls-4{fill:#d1aa80;}.cls-5{fill:#884548;}.cls-6{fill:#eacea9;}.cls-7{fill:#d86981;}.cls-8{fill:#26150c;}.cls-9{fill:#9c6b60;}.cls-10{fill:#4a3820;}.cls-11{fill:#da9395;}.cls-12{fill:#f09eb4;}.cls-13{fill:#f16c5c;}</style></defs><title>happyboy</title><polygon class="cls-1" points="1.79 95.33 76.12 152.67 1.79 152.67 1.79 95.33"/><path class="cls-2" d="M57.25,131.31s5.42-1.4,6.09,2.1-2.5,5.67-1.33,6.17,3.17.67,3.17,5-1.09,10-4,11.67S27.67,160.86,24.33,160s-24.17-14.9-25-16.73-1.67-8.67-.67-14.5-2-19.16,2-22.08S18,102.14,18,102.14l39.28,29.17" transform="translate(1.79 -10.24)"/><path class="cls-1" d="M28.36,142.07c-.19,0-8-7.17-8-7.17l1.5-20.34,7.28.84L17.47,101.32,0,105.57l-1.2,16.67L3,124.4s4.83,9.67,7.33,13.67,3.67,4.33,7.17,5.67,10.86-1.67,10.86-1.67" transform="translate(1.79 -10.24)"/><path class="cls-3" d="M5.67,122.24a19.86,19.86,0,0,1-.12-3.3c0-.5.05-1,.13-1.6a15.11,15.11,0,0,1,.3-1.78,11.74,11.74,0,0,1,.56-1.87,9,9,0,0,1,.95-1.83,9.32,9.32,0,0,1,.69-.82l.71-.67c.49-.45,1-.85,1.48-1.23a33.31,33.31,0,0,1,2.77-1.95A30.77,30.77,0,0,1,16,105.57l-2.53,2.08c-.75.63-1.63,1.36-2.54,2.16-.46.39-.91.83-1.37,1.26l-.69.68c-.18.22-.39.44-.56.69A8.05,8.05,0,0,0,7.43,114a14.06,14.06,0,0,0-.6,1.73A31.26,31.26,0,0,0,6.12,119c-.16,1-.29,1.77-.35,2.34Z" transform="translate(1.79 -10.24)"/><path class="cls-4" d="M28.36,115.4l-6.36.83L20.33,134.9l14,12.5s16-6.33,16.16-9-3.19-9.67-3.19-9.67-9-4.91-10.78-6.5S28.36,115.4,28.36,115.4Z" transform="translate(1.79 -10.24)"/><path class="cls-5" d="M92.67,101.07s2.78,9.17,1.3,14.67-4.3,13-4.3,13a9,9,0,0,0,5.5-4c2-3.33,7.5-17.17,8.33-25.17a52.06,52.06,0,0,0-.73-15Z" transform="translate(1.79 -10.24)"/><path class="cls-6" d="M101.9,61.8q-1.4-6.56-3.1-13.11C96.71,44,94.58,39.26,92.6,34.48l-.43-.57H41.7V84.57h66.37C105,77.26,103.43,69,101.9,61.8Z" transform="translate(1.79 -10.24)"/><path class="cls-6" d="M16,98.9s3.67-16.83,6.17-20S31,67.57,31,67.57l18.5-15.5,64,30.17s-19,22-21.17,24.83-2.67,13.33-7.17,16.33a61.84,61.84,0,0,1-12.5,6.67c-3.67,1.33-13.17,1.5-13.17,1.5s-12.5-.83-21.17-7.83a176,176,0,0,1-17.67-17.17Z" transform="translate(1.79 -10.24)"/><path class="cls-7" d="M66.42,60s2.08,14.53,0,18.86a45,45,0,0,1-4.92,7.83,26.44,26.44,0,0,0,13.67-5.5c6-5,12.67-16.33,12.67-16.33L88.5,60s-1,11-3,15.19-8.83,12.33-8.83,12.33,12.67-7.33,14.17-14.5a49.57,49.57,0,0,0,1.33-11s-1.83,14.5-3,19.33a72.52,72.52,0,0,0-1.5,7.67s4.55-4.42,4.51-10.67a90.56,90.56,0,0,1,1-12.83s-.17,8,2.67,13.17a58.76,58.76,0,0,1,4,8.67s2.83-7.53,2-12.85-1.17-7.82-1.17-7.82,2.67,11,3,15,.5,19.83,0,25.5-.5,15-.5,15,11.5-11.67,12.5-18-6-41.17-6-41.17,8.17,38,9,42.5a10.66,10.66,0,0,1-1,7.33s6-2.67,7.33-6.17.33-23.17-.83-29.67-5.33-12.67-5.33-12.67,9.33,25,9.17,26.74,0,5.93,0,5.93,2.66-18.67,1.83-21.33a30.72,30.72,0,0,0-3.17-6.17l8.17,7A66.27,66.27,0,0,1,128,65.24c-3.17-6.67-6.33-16-14.5-20.67A34,34,0,0,0,98.17,39.9S100,38.07,107,37.57s9.67,0,9.67,0-10.17-4.83-14.17-4.33a19.45,19.45,0,0,0-7,2.33s1.33-6.17-4.33-12.67a103.44,103.44,0,0,0-14-12.67s4.67,5.33,6.5,9.5,2.83,7,2.83,7-10.17-6.67-14.5-7-22.33-3-22.33-3S63,20.24,65.17,22.9a15.39,15.39,0,0,0,4,3.67A89.4,89.4,0,0,0,47,23.9c-10.83.33-10,4.5-18.33-1.67s-9.17-8.5-9.17-8.5,2.5,9,6.33,11.5,3,3.5,7.5,3.17a47.21,47.21,0,0,1,10,.67s-11.17-1.5-21,3.5A96.2,96.2,0,0,0,3.67,45.74s15.5-3,19.67-5.17,12.5-3.5,12.5-3.5S20,41.07,11,49.74,0,72.4,0,72.4s11.83-13,16-16.17,13.83-10,13.83-10-22.5,16.5-22.67,24S8.67,95.4,8.67,95.4L16,76.24l-.67,15.58L29.47,69.54s.2,3.69.2,6.86,2,4,2,4S37.89,61.8,41.26,59s9.58-6.91,9.58-6.91L41.5,66.24l15-12.17-4,13,9.73-9A70.8,70.8,0,0,0,61,67.57a39.48,39.48,0,0,0,1.5,8.33Z" transform="translate(1.79 -10.24)"/><path class="cls-8" d="M74.67,88.24s8.67-.67,11.42,1.42,5.83,12.5,5.83,12.5l-1.5.58s-2.08-9.25-4.83-10.92-11.25-2.33-11.25-2.33Z" transform="translate(1.79 -10.24)"/><path class="cls-8" d="M42,66.68S50.7,66,53.45,68.1s5.83,12.5,5.83,12.5l-1.5.58S55.7,71.93,53,70.26,41.7,67.93,41.7,67.93Z" transform="translate(1.79 -10.24)"/><path class="cls-9" d="M39.92,83l33.42,20.77s1.5,3.33,1,5.17-1.17,6.67-1.17,6.67-19.64,20-33.25,8.5S27.33,102.64,30,95.44,39.92,83,39.92,83Z" transform="translate(1.79 -10.24)"/><path class="cls-10" d="M70.77,102.14l7.57,6.26-7.57,9.37s1.57-7,2.57-10.53S70.77,102.14,70.77,102.14Z" transform="translate(1.79 -10.24)"/><path class="cls-11" d="M29.35,97.41s17.82-3.7,24.65,4.73A88.33,88.33,0,0,1,65.17,120.9s-15.81,10.66-22.56,5a81.23,81.23,0,0,1-12.13-13.23l-2.11-7.37V99.4Z" transform="translate(1.79 -10.24)"/><path class="cls-5" d="M62.5,75.9s-1.62-6.2-1.5-8.33,1.23-9.5,1.23-9.5.1-3.83,4.44-6.67a22.91,22.91,0,0,1,9.83-3.17s3.17,4.67.67,13.83-3.67,16-5.17,17.5-10.5,7.17-10.5,7.17l5.92-8.67-1-18Z" transform="translate(1.79 -10.24)"/><path class="cls-5" d="M102.61,75.42a16.52,16.52,0,0,1,5.06,11.32c.33,7.33-4.38,27.82-4.38,27.82Z" transform="translate(1.79 -10.24)"/><path class="cls-5" d="M111.25,70.46S116,76.4,117.5,81.4s1.17,24.17,1.17,24.17Z" transform="translate(1.79 -10.24)"/><path class="cls-5" d="M15,75.42s7.67-11.18,11.5-16.85,11-6.5,11-6.5L32.24,66.53,15.33,91.82Z" transform="translate(1.79 -10.24)"/><path class="cls-5" d="M34.33,66.24s3.17-8.83,9.33-14.17,16.17-5.5,16.17-5.5L46.76,54.36Z" transform="translate(1.79 -10.24)"/><path class="cls-5" d="M4.69,45.53s10.64-5.8,16.14-7.63,16.67-1,16.67-1Z" transform="translate(1.79 -10.24)"/><path class="cls-5" d="M29.83,46.24S16,48.9,12.5,53.24,0,72.4,0,72.4Z" transform="translate(1.79 -10.24)"/><polygon class="cls-12" points="62.78 19.5 45.46 24.5 66.54 26.48 61.62 30.89 71.35 32.67 69.21 36 80.96 35.3 82.46 46.17 93.71 40.5 100.79 54.83 105.62 50.67 112.14 56.29 113.79 47.33 119.46 51.83 115.29 50.33 115.29 56 113.04 60.22 106.12 53.67 102.64 57.25 92.29 44 82.46 50.67 79.92 37 64.12 41.83 66.96 34 57.96 36 62.78 28 39.96 29.17 43.96 21.83 62.78 19.5"/><path class="cls-13" d="M72.83,97.4c.3-2.39,10.67,2,14,4.74s8,5.37,7,7.82-8.83-2.05-13-5.39S72.5,100.07,72.83,97.4Z" transform="translate(1.79 -10.24)"/><path class="cls-13" d="M29.36,70.4c.3-2.39,10.67,2,14,4.74s8,5.37,7,7.82-8.83-2.05-13-5.39S29,73.07,29.36,70.4Z" transform="translate(1.79 -10.24)"/><path class="cls-3" d="M29.56,116.4a12.58,12.58,0,0,1-.12,1.56,26.87,26.87,0,0,1-.67,3.32,26.67,26.67,0,0,1-1.09,3.21A12.47,12.47,0,0,1,27,125.9a12.47,12.47,0,0,1,.12-1.56,26.94,26.94,0,0,1,1.76-6.53A12.58,12.58,0,0,1,29.56,116.4Z" transform="translate(1.79 -10.24)"/><path class="cls-3" d="M47.3,128.74a9.53,9.53,0,0,1-1,.9,20,20,0,0,1-5.08,2.87,9.44,9.44,0,0,1-1.3.4,9.45,9.45,0,0,1,1-.9A20,20,0,0,1,46,129.14,9.52,9.52,0,0,1,47.3,128.74Z" transform="translate(1.79 -10.24)"/></svg>